<svg aria-hidden="true" style="position: absolute; width: 0; height: 0; overflow: hidden;" version="1.1" xmlns="http://www.w3.org/2000/svg" xmlns:xlink="http://www.w3.org/1999/xlink">
<defs>
<symbol id="icon-menu" viewBox="0 0 43 32">
<path fill="#8000b3" style="fill: var(--color1, #8000b3)" d="M42.667 16c0 0.471-0.187 0.924-0.521 1.257s-0.786 0.521-1.257 0.521h-39.111c-0.472 0-0.924-0.187-1.257-0.521s-0.521-0.786-0.521-1.257c0-0.472 0.187-0.924 0.521-1.257s0.786-0.521 1.257-0.521h39.111c0.471 0 0.924 0.187 1.257 0.521s0.521 0.786 0.521 1.257zM1.778 3.556h39.111c0.471 0 0.924-0.187 1.257-0.521s0.521-0.786 0.521-1.257c0-0.472-0.187-0.924-0.521-1.257s-0.786-0.521-1.257-0.521h-39.111c-0.472 0-0.924 0.187-1.257 0.521s-0.521 0.786-0.521 1.257c0 0.472 0.187 0.924 0.521 1.257s0.786 0.521 1.257 0.521zM40.889 28.444h-39.111c-0.472 0-0.924 0.187-1.257 0.521s-0.521 0.786-0.521 1.257c0 0.471 0.187 0.924 0.521 1.257s0.786 0.521 1.257 0.521h39.111c0.471 0 0.924-0.187 1.257-0.521s0.521-0.786 0.521-1.257c0-0.471-0.187-0.924-0.521-1.257s-0.786-0.521-1.257-0.521z"></path>
</symbol>
<symbol id="icon-arrow-right" viewBox="0 0 41 32">
<path fill="#560b75" style="fill: var(--color1, #560b75)" d="M25.602 31.052l-3.991-4.086 8.588-8.587h-30.199v-5.705h30.199l-8.588-8.588 3.991-4.086 15.541 15.526-15.541 15.526z"></path>
</symbol>
<symbol id="icon-arrow-left" viewBox="0 0 41 32">
<path fill="#560b75" style="fill: var(--color1, #560b75)" d="M15.541 31.052l3.991-4.086-8.588-8.587h30.199v-5.705h-30.199l8.588-8.588-3.991-4.086-15.541 15.526 15.541 15.526z"></path>
</symbol>
<symbol id="icon-vector" viewBox="0 0 32 32">
<path fill="#fff" style="fill: var(--color1, #fff)" d="M31.531 29.268c0.149 0.149 0.267 0.325 0.347 0.519s0.122 0.402 0.122 0.613c0 0.21-0.041 0.418-0.122 0.613s-0.198 0.371-0.347 0.519c-0.149 0.149-0.325 0.267-0.519 0.347s-0.402 0.122-0.613 0.122-0.418-0.041-0.613-0.122c-0.194-0.080-0.371-0.198-0.519-0.347l-13.268-13.27-13.268 13.27c-0.3 0.3-0.707 0.469-1.132 0.469s-0.832-0.169-1.132-0.469c-0.3-0.3-0.469-0.708-0.469-1.132s0.169-0.832 0.469-1.132l13.27-13.268-13.27-13.268c-0.3-0.3-0.469-0.707-0.469-1.132s0.169-0.832 0.469-1.132c0.3-0.3 0.707-0.469 1.132-0.469s0.832 0.169 1.132 0.469l13.268 13.27 13.268-13.27c0.3-0.3 0.707-0.469 1.132-0.469s0.832 0.169 1.132 0.469c0.3 0.3 0.469 0.707 0.469 1.132s-0.169 0.832-0.469 1.132l-13.27 13.268 13.27 13.268z"></path>
</symbol>
<symbol id="icon-arrow-right2" viewBox="0 0 41 32">
<path  d="M25.602 31.052l-3.991-4.086 8.588-8.587h-30.199v-5.705h30.199l-8.588-8.588 3.991-4.086 15.541 15.526-15.541 15.526z"></path>
</symbol>
<symbol id="icon-arrow-left2" viewBox="0 0 41 32">
<path  d="M15.541 31.052l3.991-4.086-8.588-8.587h30.199v-5.705h-30.199l8.588-8.588-3.991-4.086-15.541 15.526 15.541 15.526z"></path>
</symbol>
</defs>
</svg>
